<?xml version="1.0" encoding="utf-8"?>
<!-- Generator: Adobe Illustrator 16.0.0, SVG Export Plug-In . SVG Version: 6.00 Build 0)  -->
<!DOCTYPE svg PUBLIC "-//W3C//DTD SVG 1.1//EN" "http://www.w3.org/Graphics/SVG/1.1/DTD/svg11.dtd">
<svg version="1.1" xmlns="http://www.w3.org/2000/svg" xmlns:xlink="http://www.w3.org/1999/xlink" x="0px" y="0px" width="1487px"
	 height="1508px" viewBox="0 0 1487 1508" enable-background="new 0 0 1487 1508" xml:space="preserve">
<g id="Calque_2">
</g>
<g id="Calque_1">
	<path fill-rule="evenodd" clip-rule="evenodd" fill="#FFFFFF" d="M1225.438,479.076c-14.807-0.832-26.038-7.477-32.242-21.156
		c-5.965-13.153-4.339-25.907,5.252-36.703c8.711-9.8,18.035-19.129,27.729-27.961c9.561-8.71,22.933-7.917,31.507,0.878
		c8.189,8.403,8.723,20.949,0.742,30.362c-4.706,5.548-10.077,10.543-15.314,15.613c-3.217,3.112-7.034,6.341-11.131,1.678
		c-3.896-4.436-0.621-8.038,2.564-11.264c4.439-4.499,8.986-8.894,13.345-13.467c4.328-4.54,5.096-9.432,0.236-14.062
		c-4.754-4.531-9.623-3.93-14.114,0.556c-8.603,8.593-17.562,16.877-25.602,25.97c-8.503,9.607-7.574,21.402,1.294,30.073
		c8.784,8.586,21.035,9.378,30.109,0.596c19.919-19.275,39.583-38.838,58.731-58.877c9.19-9.616,8.078-22.807-1.053-31.222
		c-8.709-8.031-20.454-7.646-30.412,0.175c-5.048,3.966-9.953,15.659-16.925,7.459c-6.919-8.131,4.909-13.164,9.94-17.805
		c13.577-12.519,32.751-11.672,46.193,0.845c13.204,12.294,16.249,32.731,4.045,46.056c-20.99,22.92-43.548,44.421-65.815,66.142
		C1239.574,477.783,1232.552,479.243,1225.438,479.076z"/>
	<path fill-rule="evenodd" clip-rule="evenodd" fill="#FFFFFF" d="M158.172,404.644c-0.384,25.086-25.581,42.583-48.115,31.465
		c-26.923-13.284-52.93-28.556-78.646-44.104c-14.634-8.849-18.046-28.424-9.744-44.018c8.401-15.78,27.462-23.371,43.462-16.011
		c12.739,5.857,24.999,12.931,36.909,20.364c10.651,6.647,13.271,18.755,7.619,29.291c-5.76,10.739-18.334,14.911-29.931,9.385
		c-6.991-3.328-13.617-7.436-20.319-11.34c-3.125-1.821-5.506-4.473-3.758-8.347c2.083-4.622,6.055-4.481,9.852-2.57
		c5.624,2.836,11.054,6.061,16.539,9.167c6.172,3.496,12.42,4.664,16.18-2.719c3.236-6.354-0.166-10.896-6.136-14.109
		c-9.817-5.285-19.263-11.29-29.204-16.319c-11.527-5.828-24.242-1.639-29.91,9.146c-5.437,10.34-2.554,22.883,7.969,29.034
		c23.862,13.945,47.911,27.607,72.279,40.642c11.986,6.411,23.764,2.046,29.664-9.306c5.625-10.824,2.325-21.255-8.077-29.161
		c-5.052-3.842-17.868-4.991-11.925-14.203c6.076-9.414,13.717,1.181,19.587,4.472C153.411,381.536,158.382,391.966,158.172,404.644
		z"/>
	<path fill-rule="evenodd" clip-rule="evenodd" fill="#FFFFFF" d="M138.03,905.108c-17.829-0.041-29.278-11.379-28.811-28.53
		c0.45-16.448,14.168-30.102,29.642-29.489c16.193,0.643,28.736,14.231,28.396,30.765
		C166.946,892.939,153.864,905.142,138.03,905.108z"/>
	<path fill-rule="evenodd" clip-rule="evenodd" fill="#FFFFFF" d="M1156.608,595.594c17.128-0.045,28.046,10.655,28.098,27.53
		c0.046,15.902-13.228,29.766-28.72,29.999c-13.845,0.209-28.777-14.64-29.306-29.144
		C1126.089,607.657,1138.753,595.644,1156.608,595.594z"/>
	<path fill-rule="evenodd" clip-rule="evenodd" fill="#FFFFFF" d="M602.339,80.08c4.68,2.962,6.995,3.892,8.58,5.532
		c4.197,4.342,7.695,4.986,11.523-0.532c2.485-3.586,5.426-7.187,10.573-3.095c4.629,3.684,3.732,7.361,0.35,11.067
		c-3.956,4.334-4.603,8.063,0.861,11.841c3.77,2.605,6.572,5.694,2.47,10.675c-3.98,4.838-7.526,3.345-10.839-0.176
		c-5.404-5.749-8.982-2.926-12.547,2.034c-2.578,3.585-5.623,5.19-9.607,1.611c-3.406-3.06-4.615-6.445-1.113-9.914
		c5.42-5.369,5.04-9.714-1.329-13.884c-3.185-2.085-4.413-4.92-2.091-8.633C600.469,84.531,601.335,82.184,602.339,80.08z"/>
	<path fill-rule="evenodd" clip-rule="evenodd" fill="#FFFFFF" d="M1451.696,944.235c-8.255,7.755-7.843,14.547,0.88,21.374
		c2.5,1.95-0.285,5.349-2.338,7.465c-3.066,3.169-6.324,2.352-8.862-0.443c-5.242-5.773-9.477-5.088-13.582,1.21
		c-2.464,3.779-5.573,5.256-9.614,1.743c-3.564-3.096-4.464-6.55-0.987-9.948c5.557-5.427,4.808-9.77-1.284-14.06
		c-3.812-2.688-4.443-5.938-1.152-9.814c3.272-3.852,6.523-3.814,9.807-0.439c5.374,5.521,9.674,4.845,13.861-1.504
		c2.091-3.17,5.487-4.26,8.764-1.562C1448.914,939.683,1449.981,941.903,1451.696,944.235z"/>
	<path fill-rule="evenodd" clip-rule="evenodd" fill="#FFFFFF" d="M73.368,611.672c-0.306,0.652-1.502,3.828-1.794,3.748
		c-16.659-4.632-9.987,17.038-20.969,18.481c-1.365,0.18-4.045-0.259-4.061-0.531c-0.727-12.25-11.168-14.065-19.004-19.413
		c-3.448-2.354-0.982-9.644,5.833-9.537c6.927,0.11,11.202-1.298,10.304-9.5c-0.467-4.274,1.218-7.623,6.426-7.57
		c4.676,0.05,7.556,2.376,7.248,7.019c-0.482,7.244,1.875,10.935,9.7,10.071C71.137,603.988,73.31,606.249,73.368,611.672z"/>
	<path fill-rule="evenodd" clip-rule="evenodd" fill="#FFFFFF" d="M1038.267,313.586c0.11-3.852-2.812-5.252-4.897-7.081
		c-3.811-3.344-5.491-6.655-1.535-11.076c3.866-4.317,7.152-1.842,9.789,1.056c5.21,5.729,8.914,3.553,12.714-1.513
		c2.671-3.561,6.039-4.782,10.028-1.784c4.157,3.126,3.776,6.584,0.248,9.677c-5.895,5.175-5.597,9.349,1.157,13.466
		c3.739,2.277,5.34,5.381,2.014,9.611c-3.732,4.748-7.215,3.763-10.912,0.175c-3.827-3.713-7.5-6.408-11.548-0.034
		c-2.721,4.277-5.765,8.119-11.448,3.018c-5.05-4.535-1.293-7.611,1.154-11.063C1036.145,316.467,1037.297,314.921,1038.267,313.586
		z"/>
	<path fill-rule="evenodd" clip-rule="evenodd" fill="#FFFFFF" d="M1039.211,189.813c9.506,0.178,14.547,5.286,14.109,15.471
		c-0.408,9.593-5.607,16.025-15.013,16.202c-9.255,0.175-16.361-6.038-16.252-15.242
		C1022.166,197.018,1027.466,189.711,1039.211,189.813z"/>
	<path fill-rule="evenodd" clip-rule="evenodd" fill="#FFFFFF" d="M259.439,226.132c-0.086,11.98-5.363,16.679-15.428,16.431
		c-9.536-0.238-13.978-5.254-13.968-14.626c0.009-9.318,4.317-14.397,13.908-14.687C254.084,212.945,259.27,217.673,259.439,226.132
		z"/>
	<path fill-rule="evenodd" clip-rule="evenodd" fill="#FFFFFF" d="M1075.823,975.709c4.369-3.812,8.973-7.382,13.065-11.473
		c73.924-73.797,147.768-147.668,221.688-221.47c5.469-5.46,11.371-10.496,17.071-15.728c14.907,14.537,29.581,29.32,44.835,43.478
		c5.637,5.234,2.362,7.856-1.229,11.425c-17.216,17.108-34.36,34.283-51.523,51.441c-60.762,60.747-121.784,121.231-182.015,182.499
		c-9.775,9.941-15.041,9.03-23.462-0.511C1102.082,1001.587,1088.693,988.877,1075.823,975.709z"/>
	<path fill-rule="evenodd" clip-rule="evenodd" fill="#FFFFFF" d="M399.448,1071.408c16.56,7.104,32.115-1.434,47.712-4.011
		c82.398-13.619,164.628-28.294,246.873-42.828c62.762-11.089,125.457-22.564,188.199-33.771
		c29.939-5.35,59.927-10.456,89.873-15.775c1.774-0.313,3.374-1.578,5.059-2.398c3.781,2.472,10.829,3.923,7.507,10.001
		c-4.464,8.173-3.477,20.013-17.442,22.279c-47.894,7.799-95.593,16.795-143.391,25.219
		c-148.157,26.129-296.325,52.202-444.497,78.262c-1.388,0.246-2.855,0.031-6.585,0.031
		C382.192,1095.335,390.82,1083.371,399.448,1071.408z"/>
	<path fill-rule="evenodd" clip-rule="evenodd" fill="#FFFFFF" d="M869.269,370.887c-16.672-27.637-37.89-48.463-72.477-51.093
		c-21.609-1.644-41.942,4.918-62.703,8.318c-59.961,9.819-119.747,20.688-179.591,31.213
		c-51.303,9.022-102.611,18.036-153.879,27.269c-17.075,3.074-34.379,5.642-50.98,10.486c-36.902,10.766-56.098,35.857-58.62,74.103
		c-13.387-47.867,13.855-94.671,62.501-103.552c119.767-21.869,239.746-42.557,359.643-63.702
		c19.109-3.368,38.248-6.583,57.353-9.989C822.08,284.744,865.597,318.624,869.269,370.887z"/>
	<path fill-rule="evenodd" clip-rule="evenodd" fill="#FFFFFF" d="M1359.217,692.369c30.729-23.17,56.467-51.525,82.529-79.54
		c0.452,0.175,1,0.238,1.344,0.538c38.559,33.707,41.941,59.876,1.188,95.605c-9.811,8.599-18.829,18.147-27.704,27.732
		c-4.997,5.403-8.438,6.159-13.893,0.312C1388.521,721.831,1373.743,707.213,1359.217,692.369z"/>
	<path fill-rule="evenodd" clip-rule="evenodd" fill="#FFFFFF" d="M746.729,794.509c18.484-30.095,41.745-56.656,62.781-84.856
		c30.289-40.611,60.981-80.928,91.783-121.153c4.114-5.375,1.962-11.193,3.421-16.655c6.6,20.03,6.451,37.254-7.772,56.316
		c-40.842,54.735-79.025,111.465-118.237,167.418c-10.714,15.287-10.714,15.331-25.535,4.575
		C750.867,798.484,748.869,796.398,746.729,794.509z"/>
	<path fill-rule="evenodd" clip-rule="evenodd" fill="#FFFFFF" d="M329.414,689.052c44.665,28.718,89.353,57.399,133.982,86.168
		c29.213,18.831,58.338,37.785,87.502,56.683c-14.203,23.545-14.164,23.487-35.871,8.173
		c-55.81-39.37-111.347-79.141-167.726-117.676C334.489,713.642,328.642,703.795,329.414,689.052z"/>
	<path fill-rule="evenodd" clip-rule="evenodd" fill="#FFFFFF" d="M1000.058,1051.498c22.381-18.733,41.612-40.688,62.377-61.084
		c1.529-1.496,1.729-4.347,2.552-6.57c15.979,16.875,31.962,33.752,48.973,51.717c-20.33,8.32-41.554,17.014-62.785,25.697
		c-1.798,0.733-3.619,1.405-5.419,2.146C1019.052,1074.355,1019.052,1074.358,1000.058,1051.498z"/>
	<path fill-rule="evenodd" clip-rule="evenodd" fill="#FFFFFF" d="M613.105,309.063c-36.219,6.409-69.143,12.233-105.723,18.707
		c14.688-20.744,27.681-38.971,40.516-57.308c3.476-4.963,6.311-2.248,9.611,0.054C574.997,282.713,592.544,294.823,613.105,309.063
		z"/>
	<path fill-rule="evenodd" clip-rule="evenodd" fill="#FFFFFF" d="M318.203,700.79c-16.868-11.879-31.387-22.188-46.017-32.338
		c-3.821-2.65-3.18-5.062-0.831-8.307c9.888-13.658,19.611-27.435,31.609-44.275C308.267,645.415,312.969,671.625,318.203,700.79z"
		/>
	<path fill-rule="evenodd" clip-rule="evenodd" fill="#FFFFFF" d="M921.43,591.609c-4.856-27.588-9.086-51.614-13.722-77.964
		c14.506,9.986,27.05,18.881,39.885,27.335c5.818,3.834,4.388,7.203,1.075,11.773C940.188,564.439,932.059,576.379,921.43,591.609z"
		/>
	<path fill-rule="evenodd" clip-rule="evenodd" fill="#FFFFFF" d="M1335.7,715.839c5.14-4.107,10.278-8.213,15.419-12.319
		c14.824,14.466,29.393,29.215,44.601,43.269c6.428,5.938,1.909,8.68-1.782,12.398c-4.089,4.124-7.323,9.083-13.795,2.176
		C1365.649,745.886,1350.551,730.979,1335.7,715.839z"/>
	<path fill-rule="evenodd" clip-rule="evenodd" fill="#FFFFFF" d="M328.42,1069.066c14.96,8.414,29.82,17.245,48.159,11.401
		c-2.519,4.061-4.857,8.246-7.583,12.162c-12.551,18.043-19.156,17.878-32.474-0.78
		C331.67,1085.047,328.782,1077.49,328.42,1069.066z"/>
	<path fill-rule="evenodd" clip-rule="evenodd" fill="#FFFFFF" d="M392.575,572.981c-6.164,0.802-11.189-1.237-11.86-7.705
		c-0.737-7.161,4.211-9.812,10.823-10.957c45.937-7.954,91.825-16.147,137.739-24.233c88.475-15.584,176.963-31.088,265.407-46.824
		c7.062-1.256,13.464-1.139,15.233,6.618c1.858,8.132-4.496,10.818-11.247,12.006c-133.921,23.517-267.843,47.022-401.765,70.523
		C395.469,572.664,394.016,572.801,392.575,572.981z"/>
	<path fill-rule="evenodd" clip-rule="evenodd" fill="#FFFFFF" d="M639.929,592.995c-1.854-6.164-0.776-13.385,4.907-18.545
		c-52.432,9.228-104.865,18.452-157.297,27.68c-27.73,4.882-55.476,9.72-83.199,14.647c-5.316,0.946-10.659,2.108-12.575,8.296
		c-1.176,3.792,0.529,6.665,3.245,8.974c4.8,4.08,10.105,1.889,15.298,0.975c75.571-13.282,151.144-26.552,226.713-39.839
		C637.859,594.363,638.791,593.601,639.929,592.995z"/>
	<path fill-rule="evenodd" clip-rule="evenodd" fill="#FFFFFF" d="M821.034,553.316c-0.865-6.385-5.994-8.321-12.108-7.494
		c-2.41,0.338-4.824,0.601-7.219,1.023c-16.861,2.966-33.727,5.935-50.591,8.901c2.836,0.372,5.657,0.759,8.447,1.171
		c8.9,1.317,12.35,7.729,11.919,14.525c12.537-2.224,25.074-4.449,37.615-6.659C815.754,563.61,822.167,561.698,821.034,553.316z"/>
	<path fill-rule="evenodd" clip-rule="evenodd" fill="#FFFFFF" d="M517.434,679.76c-7.507-2.719-11.874-9.061-11.976-15.814
		c-30.341,5.378-60.667,10.842-91.021,16.141c-6.281,1.094-11.837,2.971-11.674,10.342c0.146,6.574,4.886,8.937,10.135,8.846
		c3.291-0.512,5.7-0.848,8.091-1.269c33.011-5.811,66.023-11.611,99.032-17.421C519.161,680.298,518.294,680.073,517.434,679.76z"/>
	<path fill-rule="evenodd" clip-rule="evenodd" fill="#FFFFFF" d="M380.66,510.612c-5.419,0.076-9.74-1.879-10.78-7.553
		c-1.376-7.516,3.585-10.576,9.868-11.718c21.451-3.891,42.935-7.583,64.411-11.321c36.75-6.396,73.52-12.673,110.241-19.225
		c7.135-1.274,14.64-2.595,16.466,6.371c1.845,9.075-5.564,10.778-12.741,12.033c-57.738,10.106-115.451,20.346-173.172,30.548
		C383.522,510.002,382.103,510.323,380.66,510.612z"/>
	<g>
		<path fill="#FFFFFF" d="M905.828,442.027c-131.499,0.834-263.002,0.78-394.505,0.051c-20.906-0.114-41.108,21.677-40.922,40.791
			c0.933,99.132,0.426,198.28,0.426,297.428v1.201c4.001,4.548,8.138,8.945,12.384,13.212c6.528,5.38,13.098,10.705,19.668,16.028
			c3.713,1.651,7.376,3.384,10.993,5.188c13.507,5.241,26.356,12.407,38.92,19.752c13.146-23.931,28.062-46.93,45.982-67.58
			c0.229-0.266,0.468-0.487,0.7-0.729c-13.054-22.454-26.287-44.891-37.089-68.52c-14.093-30.844,10.223-69.622,44.121-71.385
			c5.636-0.286,5.741-0.111,5.839,10.794c-0.02,15.002,3.878,29.454,6.22,44.105c2.668,16.691,6.314,33.21,9.163,49.877
			c1.604,9.427,4.801,18.04,9.427,25.96c7.764-1.905,16.089-2.405,25.039-1.222c2.339,0.312,4.674,0.733,7,1.211
			c-5.457-5.193-9.824-11.674-12.809-19.317c-5.01-12.815-5.572-26.542-8.396-39.801c-2.135-10.029-3.775-20.169-5.418-30.303
			c-1.645-10.103-4.718-20.041-4.154-28.502c-0.774-46.255,38.893-78.448,82.429-69.959c35.339,6.894,61.961,42.827,52.967,84.62
			c-5.08,23.557-9.169,47.35-12.821,71.173c-3.49,22.749-22.941,43.625-44.424,46.118c-3.997,0.465-7.874,0.568-11.634,0.4
			c8.297,5.209,15.874,11.5,22.277,18.689c0.475,0.535,0.862,1.1,1.255,1.662c2.978-2.769,5.769-5.636,8.317-8.132
			c11.958-11.705,23.751-24.896,38.859-32.598c1.496-0.763,3.092-1.207,4.717-1.446c4.614-10.979,6.757-22.838,8.869-34.693
			c3.438-19.184,6.873-38.354,10.3-57.536c1.443-8.119,2.007-16.334,1.47-24.531c-0.377-5.654,1.702-7.178,7.126-6.556
			c24.015,2.797,41.447,20.562,45.925,41.693c20.082-28.604,49.728-52.966,51.53-89.39c0.195-3.955,1.504-7.176,3.494-9.666
			c-4.763-10.049-9.265-19.981-9.021-32.332c0.081-4.001,1.312-7.254,3.251-9.757c1.525-6.659,6.689-12.346,15.538-12.346
			c9.367,0,14.63,6.365,15.789,13.517c0.952-0.154,1.942-0.255,2.998-0.255c4.004,0,7.262,1.164,9.765,3.057
			c0.059-16.127,0.11-32.259,0.22-48.385C947.75,463.601,926.925,441.896,905.828,442.027z M569.936,767.189
			c3.338,5.679,2.446,8.898-3.072,12.122c-8.333,4.844-14.958,12.428-24.34,15.657c-14.118,4.858-28.792-5.548-28.926-21.084
			c-0.933-4.882,1.99-9.363,4.438-13.754c6.712-12.03,13.806-23.837,20.688-35.776c1.055-1.841,1.991-3.788,4.342-3.829
			c2.408-0.026,2.22,2.436,3.022,3.894C554.011,738.696,561.667,753.116,569.936,767.189z"/>
		<path fill="#FFFFFF" d="M689.617,709.332c9.496,7.496,19.194,8.963,29.386,1.255c2.098-1.597,4.688-2.715,6.6,0.408
			c1.909,3.122,0.252,5.739-2.223,7.224c-14.521,8.807-19.059,12.322-38.146-1.451C683.254,710.772,684.098,709.342,689.617,709.332
			z"/>
		<path fill="#FFFFFF" d="M743.089,692.605c4.654,0.336,7.445,2.375,7.354,7.142c-0.104,4.465-2.811,7.463-6.923,7.664
			c-4.621,0.226-7.62-2.943-7.608-7.664C735.926,695.246,738.899,693.025,743.089,692.605z"/>
		<path fill="#FFFFFF" d="M660.484,695.256c0.492-0.525,0.982-1.042,1.463-1.567c1.577-0.936,3.43-1.501,5.096-1.355
			c4.419,0.413,7.858,2.395,7.983,7.479c0.114,4.511-2.835,7.455-6.626,8.213c-4.768,0.951-7.35-2.76-8.542-6.888
			C659.333,699.334,659.131,697.087,660.484,695.256z"/>
	</g>
	<path fill-rule="evenodd" clip-rule="evenodd" fill="#FFFFFF" d="M1468.141,621.022c-10.442-10.87-21.251-21.397-31.938-32.033
		c-30.045-29.901-61.203-29.83-91.403,0.345c-97.381,97.303-194.7,194.667-292.127,291.917c-3.644,3.637-6.372,8.609-13.065,10.349
		c-18.907-107.302-37.636-213.521-56.334-319.747c-3.119-17.727-11.98-31.443-27.318-41.138
		c-13.543-8.562-26.521-18.037-40.24-26.293c-8.24-4.959-12.016-11.534-13.56-20.785c-6.796-40.733-14.155-81.375-21.123-122.083
		c-9.639-56.311-57.699-89.784-113.934-79.578c-42.071,7.636-84.287,14.475-126.307,22.377c-8.082,1.52-13.825-0.256-20.088-4.713
		c-19.004-13.529-38.613-26.228-57.354-40.105c-11.414-8.449-18.874-6.154-26.386,4.982c-12.769,18.935-26.586,37.163-39.357,56.092
		c-5.024,7.441-10.918,11.094-19.869,12.584c-43.128,7.183-86.336,14.143-129.134,23.013c-48.407,10.032-79.403,55.429-72.382,104.3
		c3.868,26.923,9.129,53.644,13.695,80.468c3.262,19.131,11.686,39.353,8.075,57.111c-3.371,16.6-19.556,30.603-30.104,45.747
		c-1.112,1.596-2.125,3.271-3.353,4.779c-14.281,17.521-16.833,37.284-12.854,59.055c10.748,58.786,20.823,117.695,31.239,176.548
		c11.346,64.104,22.298,128.29,34.367,192.266c6.012,31.875,34.695,51.398,65.547,45.992c155.54-27.27,311.04-54.745,466.567-82.104
		c39.06-6.871,78.152-13.553,119.642-20.742c-10.199,26.168-19.52,50.031-28.783,73.918c-2.195,5.656-3.274,11.46,1.479,16.372
		c4.248,4.383,9.63,4.376,14.91,2.257c55.402-22.238,110.803-44.487,166.102-66.985c3.865-1.57,7.269-4.79,10.31-7.828
		c111.855-111.713,223.751-223.393,335.358-335.358C1491.873,678.475,1491.319,645.161,1468.141,621.022z M291.019,471.182
		c-3.585-34.037,16.02-63.999,50.552-75.922c27.712-9.568,56.951-12.307,85.626-17.347
		c115.334-20.271,230.633-40.734,345.983-60.896c27.523-4.811,51.979,1.552,73.518,19.326c11.122,9.182,18.718,20.63,22.571,34.543
		c11.814,66.983,23.63,133.973,35.446,200.957c2.517,8.467,1.092,15.834-4.412,23.114
		c-47.771,63.196-95.276,126.594-143.357,189.555c-2.885,3.777-5.091,8.428-10.216,9.996
		c-21.987-15.016-43.991-30.008-65.962-45.043c-30.712-21.01-60.172-15.647-81.85,14.903c-15.984,22.525-32.01,45.026-48.02,67.533
		c-5.506,1.655-9.219-2.1-13.179-4.626c-64.655-41.24-128.775-83.314-193.231-124.874c-5.689-3.668-11.701-7.035-15.074-13.351
		c-5.265-28.352-10.774-56.664-15.745-85.071C305.926,559.751,298.55,515.452,291.019,471.182z M385.548,1074.1
		c-18.122,9.141-32.619,5.709-48.16-11.401c-12.249-68.691-24.546-137.381-36.732-206.085
		c-9.42-53.062-18.666-106.158-28.092-159.221c-1.438-8.081-2.422-16.062-0.739-24.166c5.821-0.71,8.587,3.364,11.948,5.726
		c81.065,56.959,161.905,114.247,243.21,170.856c9.711,6.762,9.387,10.919,3.109,19.771
		c-45.521,64.162-90.498,128.707-135.695,193.098C391.638,1066.613,388.507,1070.301,385.548,1074.1z M959.99,997.913
		c-117.424,20.304-234.697,41.493-352.114,61.808c-62.788,10.854-125.473,22.301-188.283,32.997
		c-7.005,1.19-16.395,6.675-20.875-5.017c58.137-83.257,116.268-166.516,174.409-249.763c12.803-18.325,25.298-36.88,38.573-54.859
		c14.098-19.096,37.373-23.688,56.779-10.146c102.821,71.747,205.332,143.943,307.952,215.985
		C974.171,997.729,966.115,996.854,959.99,997.913z M955.649,956.388c-60.073-42.099-120.103-84.257-180.269-126.225
		c-5.763-4.023-9.221-6.375-3.688-14.234c58.735-83.399,117.004-167.123,175.427-250.738c1.011-1.443,2.357-2.652,3.808-4.265
		c5.783,5.586,7.224,12.235,8.377,18.752c18.606,105.192,36.865,210.45,55.891,315.562c2.316,12.785-0.126,21.455-11.105,27.848
		c-9.966-1.077-8.058-9.871-9.118-15.607c-11.365-61.595-22.506-123.236-33.986-184.811c-5.342-28.641-10.148-57.378-15.828-85.955
		c-1.001-5.024-0.578-10.772-6.2-15.16c-3.674,5.77-0.991,11.248-0.084,16.418c16.578,94.699,34.879,189.09,51.642,283.756
		c1.271,7.192,1.972,14.362,1.404,21.646C981.505,974.501,981.502,974.505,955.649,956.388z M1062.494,995.31
		c-17.4,18.146-35.17,35.932-53.321,53.332c-2.449,2.348-5.323,4.315-9.115,2.856c-22.807-20.843-22.81-20.843-10.619-48.518
		c9.488-21.553,18.986-43.101,28.304-64.252c16.126,15.4,31.683,30.258,47.244,45.115
		C1068.548,988.604,1065.424,992.251,1062.494,995.31z M1323.152,735.271c-77.235,76.546-153.771,153.792-230.897,230.448
		c-4.521,4.495-7.983,11.594-16.432,9.989c-14.223-13.922-28.104-28.228-42.822-41.604c-6.894-6.265-6.078-9.717,0.185-15.906
		c45.996-45.464,91.59-91.329,137.319-137.061c32.662-32.669,65.553-65.114,97.828-98.156c6.773-6.937,10.442-6.92,16.846,0.135
		c13.678,15.079,28.257,29.334,42.469,43.922C1329.051,731.362,1325.406,733.034,1323.152,735.271z M1335.7,715.839
		c-14.892-14.595-29.547-29.448-44.802-43.655c-5.927-5.519-3.55-8.802,1.152-12.575c3.956-3.178,6.432-10.495,13.462-2.983
		c14.888,15.925,30.369,31.297,45.606,46.895C1349.726,712.313,1344.235,715.984,1335.7,715.839z M1438.795,621.924
		c-21.693,21.609-42.123,44.53-65.686,64.201c-3.841,3.21-7.521,8.108-13.893,6.244c-14.897-14.588-29.647-29.329-44.779-43.665
		c-4.611-4.365-4.709-7.122-0.096-11.581c15.718-15.188,30.644-31.201,46.626-46.092c17.219-16.049,41.845-15.846,59.484-0.031
		c7.552,6.769,14.226,14.522,21.294,21.829C1443.312,616.683,1441.172,619.553,1438.795,621.924z"/>
	
		<rect x="729.564" y="760.399" transform="matrix(0.843 -0.5379 0.5379 0.843 -297.6279 532.6235)" fill-rule="evenodd" clip-rule="evenodd" fill="#FFFFFF" width="68.002" height="31.493"/>
</g>
</svg>
