<?xml version="1.0" encoding="utf-8"?>
<!-- Generator: Adobe Illustrator 16.0.0, SVG Export Plug-In . SVG Version: 6.00 Build 0)  -->
<!DOCTYPE svg PUBLIC "-//W3C//DTD SVG 1.1//EN" "http://www.w3.org/Graphics/SVG/1.1/DTD/svg11.dtd">
<svg version="1.1" id="Calque_1" xmlns="http://www.w3.org/2000/svg" xmlns:xlink="http://www.w3.org/1999/xlink" x="0px" y="0px"
	 width="500px" height="500px" viewBox="0 0 500 500" enable-background="new 0 0 500 500" xml:space="preserve">
<path fill-rule="evenodd" clip-rule="evenodd" fill="#FFFFFF" d="M382.876,634.693c2.255-2.449,5.913-2.949,8.136,0.58
	c0.811-1.523,2.025-2.445,3.76-2.539c2.648-0.146,4.676,1.711,4.745,4.441c0.066,2.598-0.001,5.199,0.031,7.799
	c0.008,0.586-0.174,0.746-0.742,0.727c-1.198-0.041-2.401-0.055-3.599,0.002c-0.718,0.035-0.969-0.145-0.942-0.914
	c0.062-1.838,0.01-3.678,0.023-5.518c0.008-0.971-0.211-1.793-1.336-1.92c-0.906-0.102-1.586,0.752-1.601,1.977
	c-0.021,1.84-0.037,3.682,0.011,5.52c0.018,0.697-0.211,0.883-0.877,0.855c-1.198-0.051-2.4-0.047-3.599-0.002
	c-0.613,0.023-0.823-0.139-0.808-0.785c0.046-1.84,0.022-3.68,0.014-5.52c-0.006-1.32-0.544-2.051-1.492-2.061
	c-0.906-0.008-1.598,0.805-1.617,2.014c-0.031,1.799-0.057,3.6,0.014,5.396c0.032,0.828-0.259,0.994-1.006,0.959
	c-1.197-0.059-2.399-0.037-3.599-0.008c-0.521,0.014-0.682-0.154-0.679-0.682c0.02-3.799,0.021-7.598-0.001-11.398
	c-0.003-0.553,0.213-0.668,0.703-0.656c1.04,0.027,2.089,0.092,3.117-0.014C382.703,632.826,383.268,633.143,382.876,634.693z"/>
<path fill-rule="evenodd" clip-rule="evenodd" fill="#FFFFFF" d="M349.098,641.158c1.317-0.006,2.371,1.01,2.407,2.32
	c0.037,1.357-1.02,2.439-2.394,2.449c-1.337,0.01-2.351-0.979-2.376-2.316C346.708,642.201,347.709,641.162,349.098,641.158z"/>
<path fill-rule="evenodd" clip-rule="evenodd" fill="#FFFFFF" d="M328.085,540.979c0.021-3.117-3.222-6.496-6.506-6.475
	c-20.473,0.13-40.946,0.121-61.419,0.008c-3.255-0.018-6.401,3.375-6.372,6.35c0.146,15.434,0.067,30.869,0.067,46.305
	c0,4.678,0.015,9.357-0.017,14.035c-0.004,0.717,0.146,1.006,0.916,0.947c0.914-0.07,1.839,0.006,2.758-0.021
	c1.178-0.037,2.125,0.355,2.694,1.42c0.281,0.525,0.567,0.609,1.146,0.408c2.639-0.924,5.344-1.615,8.113-2.01
	c5.863-0.834,11.446-0.514,15.953,4.059c0.373-0.396,0.209-0.854,0.21-1.27c0.009-2.879-0.015-5.758,0.004-8.637
	c0.012-1.863,0.956-2.873,2.761-2.893c2.998-0.035,5.998-0.049,8.996,0.002c2.258,0.039,3.171,1.043,3.173,3.299
	c0.001,1.641,0.013,3.279-0.012,4.92c-0.01,0.691,0.175,0.922,0.916,0.719c0.958-0.26,1.906-0.59,2.93-0.582
	c4.869,0.047,8.836,1.832,11.633,6.092c0.751-0.871,1.364-1.645,2.151-2.283c2.53-2.055,5.455-3.123,8.637-3.514
	c1.02-0.125,1.223-0.531,1.221-1.498C328.007,580.565,327.947,560.771,328.085,540.979z M268.806,587.014
	c-1.297,0.755-2.328,1.934-3.789,2.438c-2.197,0.756-4.482-0.864-4.503-3.283c-0.146-0.76,0.309-1.457,0.69-2.141
	c1.045-1.873,2.15-3.712,3.221-5.57c0.164-0.286,0.311-0.59,0.676-0.596c0.375-0.004,0.346,0.379,0.471,0.606
	c1.233,2.223,2.426,4.468,3.713,6.659C269.804,586.011,269.666,586.512,268.806,587.014z M280.782,587.333
	c-2.179,1.101-5.492,0.242-6.766-1.95c-2.075-3.572-4.188-7.137-5.907-10.896c-2.193-4.801,1.591-10.839,6.87-11.113
	c0.877-0.045,0.893-0.018,0.908,1.681c-0.003,2.335,0.604,4.585,0.969,6.866c0.415,2.598,0.984,5.17,1.426,7.764
	c0.385,2.264,1.35,4.229,2.832,5.955C281.964,586.627,281.949,586.744,280.782,587.333z M292.114,585.91
	c-4.373,0.507-7.916-1.467-9.37-5.192c-0.779-1.995-0.867-4.132-1.307-6.196c-0.333-1.561-0.588-3.14-0.844-4.717
	c-0.255-1.574-0.734-3.12-0.646-4.438c-0.121-7.201,6.055-12.214,12.833-10.891c5.501,1.073,9.646,6.667,8.245,13.173
	c-0.79,3.667-1.427,7.372-1.996,11.081C298.486,582.271,295.457,585.521,292.114,585.91z M301.373,587.618
	c-2.206-0.652-2.235-0.763-0.706-2.643c1.772-2.299,2.269-5.05,2.76-7.802c0.534-2.986,1.069-5.971,1.602-8.957
	c0.226-1.264,0.314-2.543,0.229-3.82c-0.059-0.879,0.265-1.117,1.11-1.02c5.735,0.668,9.071,6.812,6.396,11.929
	c-1.66,3.173-3.416,6.296-5.188,9.407C306.115,587.28,304.273,588.101,301.373,587.618z M319.05,589.141
	c-1.221,0.762-2.535,0.705-3.734-0.064c-1.169-0.75-2.256-1.626-3.4-2.417c-0.454-0.313-0.485-0.554-0.201-1.058
	c1.384-2.457,2.723-4.939,4.033-7.436c0.271-0.515,0.512-0.492,0.744-0.094c1.417,2.434,2.991,4.781,4.14,7.365
	c0.094,0.211,0.08,0.469,0.112,0.68C320.697,587.439,320.122,588.473,319.05,589.141z"/>
<g>
	<path fill-rule="evenodd" clip-rule="evenodd" fill="#FFFFFF" d="M335.09,604.85c-3.555-0.986-7.116-0.971-10.632,0.082
		c-3.617,1.082-6.331,3.299-7.867,6.822c-0.236,0.543-0.417,1.109-0.693,1.85c-1.028-4.15-3.075-7.273-7.036-8.688
		c-3.888-1.387-7.596-1.141-10.847,2.076c0-3.67-0.017-7.141,0.015-10.609c0.006-0.658-0.145-0.881-0.843-0.871
		c-2.92,0.041-5.84,0.035-8.76,0.004c-0.66-0.008-0.888,0.148-0.887,0.852c0.021,10.959,0.021,21.918,0,32.877
		c0,0.688,0.199,0.877,0.877,0.867c2.559-0.037,5.119-0.016,7.679-0.016c1.868,0,1.869,0,1.919-1.922
		c0.004-0.156-0.011-0.318,0.201-0.359c6.104,5.789,15.239,2.492,17.691-6.389c0.257,0.174,0.282,0.459,0.376,0.721
		c1.226,3.428,3.56,5.811,6.901,7.197c2.594,1.076,5.321,1.342,8.102,1.209c7.121-0.34,11.965-4.416,12.918-11.264
		C345.126,612.67,341.979,606.764,335.09,604.85z M304.667,620.746c-1.452,1.957-4.298,1.896-5.695-0.102
		c-1.271-1.82-1.277-5.096-0.012-6.902c1.446-2.068,4.462-2.014,5.849,0.109c0.651,1,0.851,2.123,0.895,3.268
		C305.677,618.438,305.456,619.682,304.667,620.746z M333.074,620.555c-0.68,1.271-1.721,1.941-3.184,1.928
		c-1.415-0.012-2.457-0.662-3.073-1.904c-0.998-2.014-1.001-4.074-0.041-6.102c0.614-1.299,1.677-1.98,3.144-1.986
		c1.465-0.004,2.5,0.68,3.168,1.955c0.511,0.977,0.687,2.027,0.69,3.182C333.75,618.609,333.574,619.621,333.074,620.555z"/>
	<path fill-rule="evenodd" clip-rule="evenodd" fill="#FFFFFF" d="M231.055,613.656c-0.002-4.377-2.223-7.469-6.402-8.744
		c-4.477-1.367-8.931-0.711-13.354,0.354c-1.318,0.316-2.615,0.719-3.923,1.084c0.041-0.658,0.461-1.07,0.376-1.701
		c-3.237,0-6.467,0.018-9.697-0.014c-0.679-0.006-0.738,0.373-0.864,0.873c-0.78,3.084-1.587,6.162-2.393,9.242
		c-0.473,1.807-0.958,3.609-1.526,5.742c-1.169-4.645-2.241-8.928-3.327-13.207c-0.669-2.639-0.679-2.637-3.417-2.637
		c-2.651,0-5.302,0-8.055,0c3.066,8.365,6.084,16.568,9.061,24.785c0.219,0.604,0.536,0.664,1.055,0.662
		c2.958-0.014,5.918-0.041,8.875,0.016c0.811,0.016,1.156-0.223,1.437-0.992c2.635-7.244,5.319-14.471,8.079-21.947
		c0.668,2.014,1.28,3.734,1.801,5.484c0.239,0.803,0.552,0.914,1.338,0.645c2.5-0.855,5.057-1.465,7.736-1.227
		c1.124,0.102,2.094,0.48,2.655,1.553c0.374,0.715,0.428,1.125-0.648,1.125c-2.593,0-5.19-0.166-7.781,0.213
		c-5.769,0.842-8.602,5.953-6.208,11.279c1.438,3.199,5.384,4.949,9.454,4.246c2.081-0.359,3.891-1.201,5.434-2.973
		c0,0.584,0.049,0.906-0.009,1.209c-0.231,1.213,0.319,1.426,1.426,1.389c2.635-0.084,5.277-0.059,7.916-0.008
		c0.781,0.016,0.986-0.195,0.98-0.979C231.037,623.971,231.057,618.812,231.055,613.656z M220.092,622.748
		c-0.87,0.707-1.793,1.162-2.94,1.115c-1.323-0.053-2.102-0.773-2.174-2.053c-0.074-1.297,0.595-2.074,1.967-2.217
		c0.554-0.057,1.119-0.01,1.678-0.01c0-0.004,0-0.01,0-0.014c0.12,0,0.245-0.021,0.359,0.004c0.582,0.123,1.535-0.377,1.69,0.305
		C220.884,620.812,221.09,621.934,220.092,622.748z"/>
	<path fill-rule="evenodd" clip-rule="evenodd" fill="#FFFFFF" d="M257.628,604.633c-2.478,0.043-4.957,0.016-7.436,0.016
		c-2.004,0-2.004,0-2.176,2.096c-4.148-4.236-12.646-3.42-15.518,3.373c-1.621,3.834-1.669,7.762-0.26,11.672
		c1.65,4.576,5.406,7.076,10.234,6.848c2.131-0.1,3.965-0.973,5.621-2.584c0,0.643,0,1.074,0,1.508c0,2.549-1.171,3.791-3.736,3.967
		c-2.822,0.193-5.469-0.461-7.943-1.771c-0.649-0.344-0.893-0.33-1.191,0.361c-0.745,1.715-1.493,3.436-2.39,5.072
		c-0.579,1.057-0.259,1.471,0.699,1.949c4.571,2.285,9.378,3.066,14.405,2.27c6.549-1.037,10.533-5.305,10.595-11.426
		c0.077-7.477,0.009-14.953,0.04-22.43C258.576,604.793,258.352,604.619,257.628,604.633z M247.733,618.777
		c-0.525,1.543-1.761,2.451-3.195,2.428c-1.438-0.023-2.625-0.971-3.139-2.518c-0.228-0.688-0.331-1.395-0.271-2.131
		c-0.089-0.973,0.124-1.908,0.572-2.766c0.597-1.143,1.54-1.805,2.878-1.799c1.326,0.004,2.296,0.615,2.877,1.789
		C248.257,615.398,248.31,617.084,247.733,618.777z"/>
	<path fill-rule="evenodd" clip-rule="evenodd" fill="#FFFFFF" d="M400.266,595.516c-2.719,0.031-5.439,0.062-8.157-0.012
		c-1.058-0.029-1.414,0.205-1.384,1.342c0.087,3.303,0.03,6.607,0.03,10.172c-4.801-4.881-14.005-3.34-16.844,3.607
		c-1.866,4.57-1.813,9.217,0.232,13.719c2.138,4.703,7.323,7.129,12.352,5.98c1.616-0.369,2.922-1.295,4.219-2.471
		c0.02,0.422,0.072,0.668,0.034,0.896c-0.182,1.088,0.234,1.4,1.339,1.367c2.757-0.086,5.518-0.049,8.277-0.014
		c0.663,0.008,0.867-0.154,0.866-0.848c-0.022-10.957-0.026-21.914,0.006-32.873C401.239,595.561,400.921,595.51,400.266,595.516z
		 M390.064,620.516c-0.647,1.162-1.623,1.859-2.977,1.883c-1.396,0.025-2.493-0.604-3.12-1.836
		c-1.062-2.084-1.057-4.229,0.021-6.305c0.722-1.395,2.146-1.982,3.752-1.703c1.435,0.25,2.607,1.617,2.896,3.416
		c0.076,0.471,0.077,0.953,0.087,1.086C390.745,618.49,390.603,619.551,390.064,620.516z"/>
	<path fill-rule="evenodd" clip-rule="evenodd" fill="#FFFFFF" d="M355.407,628.795c-0.085-3.797-0.047-7.596-0.022-11.395
		c0.013-1.918,0.944-3.4,2.316-3.83c2.273-0.713,4.13,0.766,4.146,3.361c0.026,4.078,0.005,8.156,0.011,12.234
		c0.001,0.439-0.194,0.951,0.638,0.939c3.038-0.043,6.077-0.025,9.116-0.01c0.487,0.004,0.72-0.1,0.711-0.654
		c-0.09-5.795,0.229-11.598-0.172-17.385c-0.269-3.891-3.138-6.955-6.931-7.676c-3.915-0.746-7.162,0.391-9.846,3.771
		c0-1.057-0.037-1.846,0.012-2.629c0.04-0.635-0.09-0.904-0.82-0.893c-2.918,0.045-5.838,0.047-8.756-0.002
		c-0.773-0.012-0.912,0.244-0.91,0.953c0.023,7.838,0.031,15.674-0.007,23.512c-0.005,0.898,0.313,1.025,1.096,1.012
		c2.678-0.045,5.358-0.062,8.036,0.006C355.055,630.139,355.434,629.945,355.407,628.795z"/>
	<path fill-rule="evenodd" clip-rule="evenodd" fill="#FFFFFF" d="M285.294,613.943c0-5.004-2.523-8.223-7.391-9.295
		c-5.629-1.238-10.999,0.061-16.318,1.777c-0.55,0.178-0.471,0.445-0.322,0.875c0.608,1.766,1.199,3.539,1.75,5.324
		c0.227,0.732,0.466,0.982,1.316,0.688c2.493-0.867,5.053-1.467,7.732-1.244c0.949,0.078,1.797,0.371,2.418,1.127
		c0.307,0.373,0.637,0.838,0.457,1.299c-0.199,0.508-0.767,0.209-1.158,0.221c-2.866,0.096-5.752-0.223-8.587,0.496
		c-3.441,0.871-5.452,3.043-5.792,6.311c-0.379,3.635,1.16,6.734,4.045,8.123c3.172,1.529,8.568,1.428,11.557-2.154
		c0,0.627,0.045,0.979-0.01,1.316c-0.164,1.023,0.174,1.352,1.264,1.312c2.676-0.094,5.357-0.07,8.033-0.008
		c0.867,0.021,1.033-0.242,1.027-1.059C285.274,624.016,285.296,618.979,285.294,613.943z M274.243,622.807
		c-0.775,0.68-1.66,1.074-2.718,1.059c-1.415-0.021-2.225-0.723-2.308-2.041c-0.082-1.334,0.629-2.121,2.072-2.238
		c0.517-0.043,1.039-0.008,1.559-0.008c0-0.002,0-0.006,0-0.008c0.12,0,0.244-0.02,0.359,0.004c0.586,0.117,1.338-0.35,1.746,0.291
		C275.374,620.527,274.89,622.24,274.243,622.807z"/>
	<path fill-rule="evenodd" clip-rule="evenodd" fill="#FFFFFF" d="M374.373,633.852c-2.755-1.75-8.378-1.781-10.741,2.027
		c-2.845-3.562-7.486-4.223-10.478-1.57c-2.661,2.357-2.847,7.193-0.375,9.723c1.408,1.441,3.172,1.926,5.121,1.895
		c2.439-0.037,4.429-0.959,5.767-3.115c2.13,3.406,6.996,3.691,9.854,2.432c2.323-1.025,3.479-2.863,3.665-5.314
		C377.377,637.41,376.601,635.266,374.373,633.852z M360.237,640.695c-0.351-0.162-0.668-0.414-0.906,0.215
		c-0.248,0.658-0.836,0.967-1.544,0.848c-0.696-0.117-1.069-0.602-1.276-1.27c-0.273-0.879-0.266-1.736,0.126-2.562
		c0.509-1.076,1.797-1.316,2.537-0.389c0.462,0.578,0.795,0.561,1.365,0.285c0.784-0.379,1.608-0.674,2.416-1.002
		c0.033-0.014,0.078,0.002,0.207,0.01c-0.439,1.721-0.527,3.438,0.175,5.303C362.2,641.605,361.22,641.146,360.237,640.695z
		 M369.948,641.877c-1.162-0.037-1.889-1.049-1.854-2.584c0.032-1.428,0.836-2.441,1.928-2.436c1.126,0.004,1.93,1.086,1.913,2.568
		C371.918,640.969,371.151,641.914,369.948,641.877z"/>
</g>
<path fill-rule="evenodd" clip-rule="evenodd" fill="#FFFFFF" d="M287.917,576.119c1.479,1.167,2.989,1.396,4.576,0.195
	c0.327-0.248,0.729-0.421,1.027,0.064c0.298,0.486,0.039,0.893-0.345,1.125c-2.262,1.371-2.969,1.918-5.94-0.227
	C286.927,576.344,287.058,576.121,287.917,576.119z"/>
<path fill-rule="evenodd" clip-rule="evenodd" fill="#FFFFFF" d="M296.243,573.516c0.724,0.051,1.159,0.369,1.144,1.111
	c-0.015,0.695-0.437,1.162-1.077,1.193c-0.719,0.035-1.186-0.458-1.184-1.193C295.128,573.927,295.591,573.58,296.243,573.516z"/>
<path fill-rule="evenodd" clip-rule="evenodd" fill="#FFFFFF" d="M283.382,573.928c0.076-0.081,0.152-0.162,0.228-0.244
	c0.245-0.145,0.534-0.234,0.793-0.211c0.689,0.064,1.224,0.373,1.243,1.165c0.017,0.702-0.441,1.16-1.031,1.278
	c-0.742,0.148-1.145-0.43-1.331-1.072C283.202,574.563,283.171,574.213,283.382,573.928z"/>
</svg>
